PathFileType	4	(X/Y/Z)	Patient4_TMGait_0pt7_01_left_19.trc.trc
DataRate	CameraRate	NumFrames	NumMarkers	Units	OrigDataRate	OrigDataStartFrame	OrigNumFrames
86.419753086420	86.419753086420	4	33	mm	86.419753086420	106	       141
Frame#	Time	Sacral			L.Shoulder			Chest			R.Shoulder			Neck			R.ASIS			L.ASIS			R.Thigh.Superior			R.Thigh.Lateral			R.Thigh.Inferior			R.Patella			L.Thigh.Superior			L.Thigh.Lateral			L.Thigh.Inferior			L.Patella			L.Shank.Superior			L.Shank.Lateral			L.Shank.Inferior			R.Shank.Superior			R.Shank.Lateral			R.Shank.Inferior			R.Heel			R.Midfoot.Superior			R.Midfoot.Lateral			R.Toe			L.Heel			L.Midfoot.Lateral			L.Midfoot.Superior			L.Toe			L.Elbow			L.Wrist			R.Elbow			R.Wrist			
		X1	Y1	Z1	X2	Y2	Z2	X3	Y3	Z3	X4	Y4	Z4	X5	Y5	Z5	X6	Y6	Z6	X7	Y7	Z7	X8	Y8	Z8	X9	Y9	Z9	X10	Y10	Z10	X11	Y11	Z11	X12	Y12	Z12	X13	Y13	Z13	X14	Y14	Z14	X15	Y15	Z15	X16	Y16	Z16	X17	Y17	Z17	X18	Y18	Z18	X19	Y19	Z19	X20	Y20	Z20	X21	Y21	Z21	X22	Y22	Z22	X23	Y23	Z23	X24	Y24	Z24	X25	Y25	Z25	X26	Y26	Z26	X27	Y27	Z27	X28	Y28	Z28	X29	Y29	Z29	X30	Y30	Z30	X31	Y31	Z31	X32	Y32	Z32	X33	Y33	Z33	

106	23.015000000000	859.080703873111	1012.733844557169	513.400809959510	1037.347281469827	1428.735056726912	309.814771474833	1158.444551847136	1350.431173735332	454.345587711051	1111.140209263002	1434.825365378861	636.364258167823	1072.047083753512	1490.232539833948	460.747956372841	1094.346718695979	943.226746883922	607.732175100094	1053.161347953558	960.676476571769	335.862860396161	1121.455245541522	740.863219689249	580.337984999005	1037.033648793006	634.783068358245	641.555145392075	1108.490905621893	581.266421865500	558.680102284340	1104.234640722041	494.408085352636	563.902104061913	1138.161602268208	787.741945341320	350.653033119514	1088.314450821879	659.197313620248	275.679964687100	1198.927243539425	600.012457509621	323.163396837261	1220.177620857579	520.111558415323	314.184919250864	1176.711634812856	445.188096437855	308.321966205068	1059.536528044752	354.310630932555	264.030516306418	1102.019130039314	228.167914683930	313.215441092490	1077.172684830454	405.546446863125	569.202119901376	1005.574450312478	300.875155952155	629.351119111750	1047.044266136212	207.470447448121	562.617255623974	910.860865036417	42.356282173589	530.029600813113	1084.036420751408	97.954664952613	562.257490667819	996.368810663932	36.663345648649	601.525510609721	1203.976199337740	45.272547995779	584.598370410274	957.021954367309	89.729931954348	357.330521375264	1020.470228609178	77.095674292269	270.086531501463	1114.573844834952	126.151054719527	286.764546302154	1228.018963130153	57.789051381958	244.268819197759	928.537937200471	1086.096016535816	223.274106064928	1022.089278596678	841.664430460417	220.219006632169	1190.788746544529	1099.472372252143	763.961141136856	1386.004647913505	935.223652631958	709.454434360370	
107	23.026571428571	857.964181608075	1012.550037727428	514.098389943673	1036.328477111760	1427.957664619627	309.607081878820	1158.099241101897	1349.432383989514	453.425974794714	1112.203710773269	1434.073595289333	635.682050984161	1072.169905176108	1489.462668288976	460.291709313250	1093.532478483225	942.523909469058	607.269013985504	1051.175260600334	960.251845008563	335.444849684133	1118.735179099675	739.765410443786	578.610989469369	1034.445414918328	634.153440657563	640.999280704543	1104.295294612373	580.188997110905	557.207506865209	1099.464021347796	493.353414476504	562.457378812122	1136.705424508812	788.485162588564	351.366061300496	1088.843125293594	659.787798930108	275.552598709415	1198.800248876161	601.245330604449	325.075477808799	1221.925151162092	523.381816600860	315.664784254452	1182.468568940543	448.079126651586	308.488322609849	1072.049753038900	350.564623386875	261.738169227034	1121.791271212269	226.700997469599	310.582371829908	1071.817891092548	404.538697917668	568.031324151040	1000.053311077800	300.321541787090	628.775886570350	1040.093027953335	206.699643885520	561.699020119042	902.705165516859	42.231608749632	529.940350965902	1075.746797956775	97.707278146263	561.890419957675	988.189294579527	36.685718894727	601.496742037053	1195.832648502834	45.048222216624	584.639201003784	985.187260745809	79.652414273152	351.862462857911	1050.730510950054	70.868956271631	265.646867207843	1141.623015848820	125.019397417199	283.854185256190	1259.405376536658	63.039512462801	243.155580112464	921.589965115156	1086.872447636388	224.862122297699	998.063861790511	836.601111697491	219.843658132906	1201.192245693732	1101.862419942686	762.677842752662	1405.347373325406	951.451023409005	702.281693422793	
108	23.038142857143	856.957079216110	1012.346593129581	514.692496184774	1035.423815954915	1427.167687653301	309.250540982932	1157.822613693117	1348.410790504686	452.387524993233	1113.273703130683	1433.290972301850	634.862793168881	1072.346842967004	1488.670939081785	459.686899029136	1092.822841029732	941.793452813924	606.694541274033	1049.302065511204	959.734548495367	334.899940709383	1116.126038629559	738.651157445532	576.826546153406	1031.983708575562	633.500654464616	640.400679662426	1100.184224577407	579.085282474255	555.697028369179	1094.754726124152	492.261236374841	560.995795913470	1134.979689720618	788.788062375153	352.025781708896	1088.902031816629	660.139722223629	275.220898570208	1198.047454045604	602.002452684544	326.875212874947	1222.917345270577	526.290228701420	317.088689128513	1187.483789290108	450.917164693966	308.713832108767	1084.300155457147	347.190609867537	259.502045205824	1141.023908991214	226.140154754317	308.342085738345	1066.477843451177	403.519379033642	566.863472838535	994.547280700401	299.773689446629	628.214225748254	1033.121673798496	205.940126458882	560.815661141444	894.534553938757	42.133011370210	529.869248084278	1067.443269267465	97.445843348415	561.514995948817	980.006693438125	36.697429502299	601.476211432575	1187.685943747379	44.827419550090	584.656098582849	1013.161667180946	71.269560836058	346.816484992227	1080.825862963931	66.064043463368	261.882739237863	1168.218721602920	125.043882455931	281.620452141128	1289.964999031850	69.387897549889	243.319343114945	914.990387413935	1087.767874916491	226.116769645623	974.624278953754	833.130657129705	219.559823740632	1210.876328337039	1104.365584574557	761.153227511735	1423.031225382766	968.728562251545	694.635034928234	
109	23.049714285714	856.085092357360	1012.140766299623	515.175106326514	1034.639650236322	1426.392174944238	308.737321444657	1157.615138002780	1347.404199599915	451.230522446794	1114.338234981775	1432.515740858065	633.903257535487	1072.575234777332	1487.888497116174	458.926802015174	1092.237411589315	941.068768372387	606.014265930574	1047.567684461075	959.153923981381	334.238170393450	1113.660047555151	737.539261648804	575.071959483632	1029.605624817211	632.848819837711	639.778419836616	1096.155171404118	577.973067565037	554.214813726889	1090.078194947870	491.155524583646	559.567380730567	1133.040809997925	788.697308358737	352.579302374664	1088.510925036887	660.275670008007	274.666205543957	1196.774214481965	602.337054503700	328.415123461992	1223.224703040397	528.840791430932	318.355387379806	1191.767970669534	453.680307175649	308.939098181123	1096.112690938114	344.232082749156	257.399340787692	1159.472330859065	226.467866515134	306.524512093506	1061.136340294425	402.515817988657	565.734630990800	989.021884044724	299.259714700218	627.682949497522	1026.126313032952	205.216861558838	559.995165123452	886.352693007708	42.067375636776	529.821082241305	1059.137741074473	97.179786469938	561.145650741773	971.822830491751	36.700996833160	601.466108121089	1179.537679175883	44.614651345260	584.653818007704	1040.538522928736	64.637117585438	342.370450666036	1110.307334884442	62.658085426218	258.914244973749	1193.995343551000	126.174791575326	280.077199982297	1319.302136976629	76.696810791175	244.687061002116	908.736846879543	1088.803088756120	227.020251674134	952.018349056988	831.171528614399	219.362616784579	1219.854247124855	1106.939188712364	759.345054134646	1438.932649928682	986.901164468801	686.587398879780	
